<svg width="321" height="382" viewBox="0 0 321 382" fill="none" xmlns="http://www.w3.org/2000/svg">
<g clip-path="url(#clip0_20_231)">
<path d="M177.139 382.12C178.636 382.12 179.85 380.9 179.85 379.395C179.85 377.89 178.636 376.67 177.139 376.67C175.643 376.67 174.429 377.89 174.429 379.395C174.429 380.9 175.643 382.12 177.139 382.12Z" fill="white"/>
<path d="M311.585 184.312C312.422 184.312 313.1 183.63 313.1 182.79C313.1 181.949 312.422 181.267 311.585 181.267C310.749 181.267 310.071 181.949 310.071 182.79C310.071 183.63 310.749 184.312 311.585 184.312Z" fill="white"/>
<path d="M31.5344 134.76C33.0311 134.76 34.2445 133.54 34.2445 132.035C34.2445 130.531 33.0311 129.311 31.5344 129.311C30.0376 129.311 28.8242 130.531 28.8242 132.035C28.8242 133.54 30.0376 134.76 31.5344 134.76Z" fill="white"/>
<path d="M17.6273 315.322H15.2148V312.896H14.2317V315.322H11.8191V316.31H14.2317V318.73H15.2148V316.31H17.6273V315.322Z" fill="white"/>
<path d="M104.247 364.473H101.834V362.048H100.851V364.473H98.4385V365.462H100.851V367.882H101.834V365.462H104.247V364.473Z" fill="white"/>
<path d="M224.892 69.8323H223.792V68.7264H223.345V69.8323H222.245V70.2811H223.345V71.387H223.792V70.2811H224.892V69.8323Z" fill="white"/>
<path d="M289.192 237.588H288.092V236.482H287.645V237.588H286.545V238.037H287.645V239.143H288.092V238.037H289.192V237.588Z" fill="white"/>
<path d="M100.011 83.1886H98.9114V82.0827H98.465V83.1886H97.365V83.6374H98.465V84.7433H98.9114V83.6374H100.011V83.1886Z" fill="white"/>
<path d="M33.0541 242.93H31.9541V241.825H31.5077V242.93H30.4077V243.379H31.5077V244.485H31.9541V243.379H33.0541V242.93Z" fill="white"/>
<path d="M47.4022 196.985H46.3022V195.879H45.8559V196.985H44.7559V197.433H45.8559V198.539H46.3022V197.433H47.4022V196.985Z" fill="white"/>
<path d="M107.68 312.672H95.0693L97.3225 297.28H105.426L107.68 312.672Z" fill="#535461"/>
<g opacity="0.1">
<path opacity="0.1" d="M96.6953 303.392H106.053L105.426 299.091H97.3224L96.6953 303.392Z" fill="black"/>
</g>
<path d="M215.741 312.672H203.136L205.384 297.28H213.493L215.741 312.672Z" fill="#535461"/>
<g opacity="0.1">
<path opacity="0.1" d="M204.757 303.392H214.12L213.493 299.091H205.384L204.757 303.392Z" fill="black"/>
</g>
<path d="M148.651 312.672H136.046L138.294 297.28H146.403L148.651 312.672Z" fill="#535461"/>
<g opacity="0.1">
<path opacity="0.1" d="M137.667 303.392H147.03L146.403 299.091H138.294L137.667 303.392Z" fill="black"/>
</g>
<path d="M174.318 312.672H161.713L163.961 297.28H172.065L174.318 312.672Z" fill="#535461"/>
<g opacity="0.1">
<path opacity="0.1" d="M163.334 303.392H172.697L172.065 299.091H163.961L163.334 303.392Z" fill="black"/>
</g>
<path d="M197.732 170.08H107.68V173.702H197.732V170.08Z" fill="#535461"/>
<path d="M211.649 112.872C211.174 112.343 210.593 111.921 209.945 111.632C209.297 111.343 208.596 111.194 207.887 111.194C207.178 111.194 206.477 111.343 205.829 111.632C205.181 111.921 204.6 112.343 204.125 112.872C201.505 115.682 199.135 119.395 197.067 123.343C190.936 135.224 187.764 148.424 187.826 161.809V301.164H227.682V161.222C227.732 148.207 224.714 135.366 218.876 123.749C216.108 118.321 213.589 114.923 211.649 112.872Z" fill="#C8CACA"/>
<path d="M97.3596 112.872C97.8354 112.343 98.416 111.921 99.064 111.632C99.712 111.343 100.413 111.194 101.122 111.194C101.831 111.194 102.532 111.343 103.18 111.632C103.828 111.921 104.409 112.343 104.884 112.872C107.509 115.682 109.874 119.395 111.947 123.343C118.076 135.225 121.247 148.425 121.188 161.809V301.164H81.3324V161.222C81.2825 148.207 84.3 135.366 90.1378 123.749C92.9011 118.321 95.42 114.923 97.3596 112.872Z" fill="#C8CACA"/>
<path d="M81.561 164.192L91.02 164.24V175.962H81.561V164.192Z" fill="#535461"/>
<path d="M111.729 164.192L121.188 164.24V175.962H111.729V164.192Z" fill="#535461"/>
<path d="M187.826 164.192L197.28 164.24V175.962H187.826V164.192Z" fill="#535461"/>
<path d="M217.994 164.192L227.448 164.24V175.962H217.994V164.192Z" fill="#535461"/>
<g opacity="0.1">
<path opacity="0.1" d="M111.947 123.162C109.874 119.213 107.509 115.5 104.884 112.69C104.143 111.864 103.153 111.305 102.065 111.099C100.977 110.894 99.8526 111.053 98.8635 111.552C99.4332 111.838 99.9478 112.223 100.383 112.69C103.003 115.5 105.373 119.213 107.44 123.162C113.573 135.042 116.744 148.243 116.682 161.628V300.972H121.188V161.633C121.248 148.247 118.077 135.045 111.947 123.162V123.162Z" fill="black"/>
</g>
<g opacity="0.1">
<path opacity="0.1" d="M200.67 123.546C202.738 119.598 205.108 115.885 207.727 113.075C208.217 112.543 208.81 112.117 209.47 111.825C208.496 111.396 207.413 111.286 206.374 111.511C205.334 111.735 204.391 112.282 203.678 113.075C201.053 115.885 198.683 119.598 196.616 123.546C190.486 135.428 187.315 148.628 187.375 162.012V301.378H191.429V162.023C191.366 148.634 194.537 135.43 200.67 123.546V123.546Z" fill="black"/>
</g>
<path d="M101.631 342.6H101.305C99.7665 342.6 98.2914 342.034 97.2038 341.025C96.1162 340.017 95.5051 338.65 95.5051 337.224V312.6H107.431V337.224C107.431 338.65 106.82 340.017 105.732 341.025C104.645 342.034 103.169 342.6 101.631 342.6Z" fill="url(#paint0_linear_20_231)"/>
<path d="M142.576 342.6H142.249C140.711 342.6 139.236 342.034 138.149 341.025C137.061 340.017 136.45 338.65 136.45 337.224V312.6H148.376V337.224C148.376 338.65 147.765 340.017 146.677 341.025C145.589 342.034 144.114 342.6 142.576 342.6Z" fill="url(#paint1_linear_20_231)"/>
<path d="M168.316 342.6H167.989C166.451 342.6 164.976 342.034 163.888 341.025C162.8 340.017 162.189 338.65 162.189 337.224V312.6H174.115V337.224C174.115 338.65 173.504 340.017 172.417 341.025C171.329 342.034 169.854 342.6 168.316 342.6Z" fill="url(#paint2_linear_20_231)"/>
<path d="M209.559 342.6H209.232C207.694 342.6 206.219 342.034 205.131 341.025C204.044 340.017 203.433 338.65 203.433 337.224V312.6H215.358V337.224C215.358 338.65 214.747 340.017 213.66 341.025C212.572 342.034 211.097 342.6 209.559 342.6Z" fill="url(#paint3_linear_20_231)"/>
<path d="M159.508 3.60623C158.849 2.81863 158.027 2.1854 157.1 1.75097C156.172 1.31654 155.161 1.09143 154.138 1.09143C153.114 1.09143 152.103 1.31654 151.176 1.75097C150.248 2.1854 149.426 2.81863 148.768 3.60623C145.048 7.81615 141.647 13.3777 138.671 19.2973C129.924 36.8421 125.482 56.7591 125.482 76.9539V300.598H182.342V76.0564C182.342 56.4332 178.091 37.0559 169.78 19.9063C165.874 11.7696 162.276 6.71024 159.508 3.60623Z" fill="#DDE4FC"/>
<path d="M162.536 28.449H144.554C141.325 28.449 138.708 31.0802 138.708 34.3258V36.2438C138.708 39.4895 141.325 42.1206 144.554 42.1206H162.536C165.765 42.1206 168.382 39.4895 168.382 36.2438V34.3258C168.382 31.0802 165.765 28.449 162.536 28.449Z" fill="#535461"/>
<g opacity="0.1">
<path opacity="0.1" d="M182.071 84.5991H125.79V86.7949H182.071V84.5991Z" fill="black"/>
</g>
<g opacity="0.1">
<path opacity="0.1" d="M255.198 185.135C255.7 185.135 256.107 184.726 256.107 184.221C256.107 183.717 255.7 183.308 255.198 183.308C254.696 183.308 254.289 183.717 254.289 184.221C254.289 184.726 254.696 185.135 255.198 185.135Z" fill="black"/>
</g>
<g opacity="0.1">
<path opacity="0.1" d="M279.733 187.357C278.25 189.48 276.31 191.24 274.058 192.507C271.806 193.774 269.3 194.516 266.724 194.677C266.724 194.436 266.692 194.196 266.692 193.95C266.694 192.429 267.115 190.937 267.91 189.643C268.705 188.348 269.842 187.3 271.194 186.617C272.546 185.933 274.06 185.641 275.568 185.771C277.075 185.902 278.517 186.451 279.733 187.357V187.357Z" fill="black"/>
</g>
<g opacity="0.1">
<path opacity="0.1" d="M27.1873 278.416C27.5365 278.416 27.8197 278.131 27.8197 277.78C27.8197 277.429 27.5365 277.144 27.1873 277.144C26.8381 277.144 26.5549 277.429 26.5549 277.78C26.5549 278.131 26.8381 278.416 27.1873 278.416Z" fill="black"/>
</g>
</g>
<defs>
<linearGradient id="paint0_linear_20_231" x1="101.47" y1="312.6" x2="101.47" y2="342.6" gradientUnits="userSpaceOnUse">
<stop offset="0.328125" stop-color="#F55F44"/>
<stop offset="0.6875" stop-color="#FCCC63"/>
<stop offset="1" stop-color="white"/>
</linearGradient>
<linearGradient id="paint1_linear_20_231" x1="142.415" y1="312.6" x2="142.415" y2="342.6" gradientUnits="userSpaceOnUse">
<stop offset="0.328125" stop-color="#F55F44"/>
<stop offset="0.6875" stop-color="#FCCC63"/>
<stop offset="1" stop-color="white"/>
</linearGradient>
<linearGradient id="paint2_linear_20_231" x1="168.155" y1="312.6" x2="168.155" y2="342.6" gradientUnits="userSpaceOnUse">
<stop offset="0.328125" stop-color="#F55F44"/>
<stop offset="0.6875" stop-color="#FCCC63"/>
<stop offset="1" stop-color="white"/>
</linearGradient>
<linearGradient id="paint3_linear_20_231" x1="209.398" y1="312.6" x2="209.398" y2="342.6" gradientUnits="userSpaceOnUse">
<stop offset="0.328125" stop-color="#F55F44"/>
<stop offset="0.6875" stop-color="#FCCC63"/>
<stop offset="1" stop-color="white"/>
</linearGradient>
<clipPath id="clip0_20_231">
<rect width="321" height="382" fill="white"/>
</clipPath>
</defs>
</svg>
